<?xml version="1.0" standalone="no"?><!DOCTYPE svg PUBLIC "-//W3C//DTD SVG 20010904//EN"
    "http://www.w3.org/TR/2001/REC-SVG-20010904/DTD/svg10.dtd">
<svg height="612.000000pt" preserveAspectRatio="xMidYMid meet" version="1.0"
    viewBox="0 0 612.000000 612.000000" width="612.000000pt" xmlns="http://www.w3.org/2000/svg">
    <g fill="#000000" stroke="none"
        transform="translate(0.000000,612.000000) scale(0.100000,-0.100000)">
        <path d="M3371 5947 c-186 -473 -352 -894 -361 -912 -5 -11 -29 -72 -54 -135
-24 -63 -91 -234 -149 -380 -492 -1248 -506 -1284 -517 -1302 -6 -10 -10 -24
-10 -31 0 -37 -43 -55 -200 -83 -20 -4 -54 -11 -90 -19 -3 -1 -25 -5 -50 -10
-25 -5 -47 -9 -50 -10 -33 -8 -70 -16 -92 -20 -60 -11 -87 -16 -183 -36 -55
-12 -111 -23 -125 -25 -14 -3 -33 -7 -42 -10 -10 -3 -30 -7 -45 -10 -16 -2
-57 -11 -93 -19 -36 -8 -79 -16 -97 -19 -17 -4 -107 -22 -200 -41 -92 -20
-242 -51 -333 -70 -417 -85 -476 -98 -487 -104 -6 -3 531 -6 1195 -6 l1207 0
201 600 c111 330 204 607 206 615 2 8 4 -483 4 -1092 -1 -978 1 -1108 14
-1109 8 0 24 -3 35 -5 34 -8 237 -8 300 0 84 10 204 35 243 51 17 8 32 12 32
10 0 -6 157 62 212 92 45 25 53 34 98 131 28 57 50 105 50 107 0 2 32 70 70
151 39 80 70 148 70 150 0 2 51 113 124 266 14 29 27 40 55 47 48 13 202 52
221 56 8 2 94 24 190 49 323 83 655 168 675 172 85 17 547 142 539 145 -5 3
-456 5 -1003 5 l-994 -1 -118 -320 c-65 -176 -145 -392 -178 -480 -32 -88 -82
-223 -110 -300 -29 -77 -60 -159 -70 -183 -17 -41 -18 28 -17 2103 1 1180 -1
2145 -4 2145 -3 0 -34 -73 -69 -163z" />
        <path d="M2977 5354 c-1 -1 -29 -5 -62 -9 -33 -3 -82 -11 -110 -16 -27 -5 -66
-12 -85 -15 -65 -11 -273 -74 -374 -115 -200 -80 -372 -178 -561 -321 -255
-194 -498 -494 -649 -802 -149 -304 -221 -597 -233 -942 l-6 -172 44 8 c24 5
78 16 119 25 41 8 118 24 170 35 90 18 416 85 470 97 14 3 31 6 38 6 14 0 19
18 27 104 3 35 7 68 10 75 2 7 7 31 10 53 21 147 97 331 203 490 148 225 354
404 588 515 68 32 83 43 93 71 7 19 17 43 21 54 5 11 19 45 30 75 12 30 26 64
31 75 4 11 36 90 69 175 33 85 65 164 70 175 12 27 140 354 140 358 0 3 -49 4
-53 1z" />
        <path d="M3547 5333 c-3 -5 -5 -199 -4 -433 l0 -425 93 -29 c220 -68 419 -190
591 -361 l111 -112 302 302 302 302 -89 89 c-206 210 -439 373 -703 493 -117
53 -341 129 -435 147 -11 2 -42 8 -70 14 -89 20 -94 20 -98 13z" />
        <path d="M946 2593 c69 -310 171 -559 332 -808 25 -38 48 -72 52 -75 4 -3 11
-12 16 -21 48 -85 269 -318 389 -411 17 -12 39 -31 50 -41 11 -10 70 -52 131
-92 327 -218 725 -352 1124 -381 82 -6 311 -6 345 -1 17 3 64 8 105 12 105 9
282 46 416 88 238 74 457 186 659 337 122 91 153 118 273 239 l103 105 -301
301 -302 302 -102 -102 c-235 -238 -481 -365 -811 -419 -88 -15 -369 -16 -440
-2 -114 22 -151 31 -235 57 -408 127 -744 445 -903 856 l-28 71 -439 1 c-416
2 -438 1 -434 -16z" />
        <path d="M3014 656 c-6 -16 -12 -656 -6 -656 1 0 17 30 34 68 17 37 84 182
149 322 66 140 119 257 119 261 0 3 -61 7 -135 7 -75 1 -140 4 -145 7 -6 4
-13 -1 -16 -9z" />
    </g>
    <metadata>
        Created by potrace 1.11, written by Peter Selinger 2001-2013
    </metadata>
</svg>
